<?xml version="1.0" standalone="no"?><!DOCTYPE svg PUBLIC "-//W3C//DTD SVG 1.1//EN"
        "http://www.w3.org/Graphics/SVG/1.1/DTD/svg11.dtd">
<svg t="1720168262533" class="icon" viewBox="0 0 1024 1024" version="1.1" xmlns="http://www.w3.org/2000/svg" p-id="5146"
     xmlns:xlink="http://www.w3.org/1999/xlink" width="200" height="200">
    <path d="M224 780.8h576v40H224z m574.4-118.4c0-33.6-27.2-60.8-60.8-60.8H620.8l-40-179.2c30.4-22.4 48-56 48-94.4 0-64-52.8-115.2-115.2-115.2S398.4 265.6 398.4 328c0 36.8 17.6 72 48 94.4l-40 179.2H288c-33.6 0-60.8 27.2-60.8 60.8V744h571.2v-81.6z m-40 41.6H267.2v-41.6c0-11.2 9.6-20.8 20.8-20.8h148.8l52.8-240-12.8-6.4c-24-12.8-40-38.4-40-67.2 0-41.6 33.6-76.8 76.8-76.8s76.8 33.6 76.8 76.8c0 27.2-16 52.8-40 67.2l-12.8 6.4 52.8 240h148.8c11.2 0 20.8 9.6 20.8 20.8V704z"
          fill="white" p-id="5147"></path>
</svg>